<?xml version="1.0" encoding="utf-8"?>
<!-- Generator: Adobe Illustrator 25.4.1, SVG Export Plug-In . SVG Version: 6.00 Build 0)  -->
<svg version="1.0" id="katman_1" xmlns="http://www.w3.org/2000/svg" xmlns:xlink="http://www.w3.org/1999/xlink" x="0px" y="0px"
	 viewBox="0 0 1280 1024" style="enable-background:new 0 0 1280 1024;" xml:space="preserve">
<style type="text/css">
	.st0{clip-path:url(#SVGID_00000177458405867682035610000006205633363710889401_);}
</style>
<g>
	<g>
		<defs>
			<rect id="SVGID_1_" x="133" y="419.8" width="1014" height="184.4"/>
		</defs>
		<clipPath id="SVGID_00000006699687068311875640000000350025398255432892_">
			<use xlink:href="#SVGID_1_"  style="overflow:visible;"/>
		</clipPath>
		<path style="clip-path:url(#SVGID_00000006699687068311875640000000350025398255432892_);" d="M411,575.4v-2.1h1.4v-0.7h-2.7h0.7
			v3.5L411,575.4z M416.5,575.4v-2.8l-1.4,2.1l-1.4-2.1h-0.7v3.5v-2.8l1.4,2.1h0.7l0.7-2.1v2.8L416.5,575.4z M237.5,509.7
			c-0.2-28.6,12.5-55.8,34.6-74c-38.6-27.1-91.7-18.9-120.3,18.7c-30,39.1-23.3,95,15.2,125.8c30.3,24.6,73.2,26,105.1,3.5
			C249.9,565.5,237.2,538.4,237.5,509.7L237.5,509.7z M400.6,454.4c-28.6-37.5-81.7-45.8-120.3-18.7c22.3,18.1,35.2,45.3,35.2,74
			c0,28.7-12.9,55.8-35.2,74c14.8,10.4,32.4,15.9,50.5,15.9c23.7-0.2,46.3-9.8,62.9-26.6c16.6-16.9,25.8-39.6,25.6-63.3
			C419.3,489.7,412.8,470.3,400.6,454.4L400.6,454.4z M276.2,439.2c-21.3,17.2-33.7,43.1-33.7,70.5c0,27.4,12.4,53.3,33.7,70.5
			c21.4-17.2,33.7-43.1,33.7-70.5C309.9,482.3,297.5,456.4,276.2,439.2L276.2,439.2z M276.2,439.2"/>
	</g>
</g>
<path d="M1141.8,545v1.4h1.3c0.2,0,0.5-0.1,0.7-0.2c0.2-0.1,0.3-0.3,0.3-0.5c0-0.2-0.1-0.4-0.3-0.5c-0.2-0.1-0.5-0.2-0.7-0.2
	L1141.8,545L1141.8,545z M1143.1,544c0.6,0,1.1,0.1,1.6,0.5c0.4,0.3,0.6,0.8,0.6,1.3c0,0.4-0.1,0.8-0.4,1.1
	c-0.4,0.3-0.8,0.5-1.3,0.5l1.8,2h-1.4l-1.6-2h-0.5v2h-1.1V544L1143.1,544L1143.1,544z M1142.8,551.3c0.6,0,1.2-0.1,1.8-0.4
	c0.5-0.2,1-0.6,1.4-1c0.4-0.4,0.7-0.9,1-1.4c0.5-1.1,0.5-2.4,0-3.5c-0.2-0.5-0.6-1-1-1.4c-0.4-0.4-0.9-0.7-1.4-1
	c-0.6-0.2-1.2-0.3-1.8-0.3c-0.6,0-1.2,0.1-1.8,0.3c-0.5,0.2-1,0.6-1.5,1c-1.3,1.3-1.7,3.3-1,5c0.2,0.5,0.5,1,1,1.4
	c0.4,0.4,0.9,0.7,1.5,1C1141.6,551.2,1142.2,551.3,1142.8,551.3 M1142.8,541c1.6,0,3.1,0.6,4.2,1.7c0.5,0.5,1,1.2,1.3,1.9
	c0.6,1.4,0.6,3.1,0,4.5c-0.3,0.7-0.7,1.3-1.3,1.9c-0.5,0.5-1.2,0.9-1.9,1.2c-0.7,0.3-1.5,0.5-2.3,0.5c-0.8,0-1.6-0.2-2.3-0.5
	c-0.7-0.3-1.3-0.7-1.9-1.2c-0.5-0.6-1-1.2-1.2-1.9c-0.6-1.4-0.6-3.1,0-4.5c0.3-0.7,0.7-1.3,1.3-1.9c0.5-0.5,1.2-1,1.9-1.2
	C1141.2,541.1,1142,540.9,1142.8,541 M596.9,520.1c0-10.3,6.7-18.7,17.7-18.7c10.5,0,17.6,8.1,17.6,18.7c0,10.6-7.1,18.7-17.6,18.7
	C603.7,538.9,596.9,530.4,596.9,520.1 M644.3,520.1v-29.3h-12.7v7.1c-4-5.3-10.2-8.6-18.5-8.6c-16.4,0-29.3,12.9-29.3,30.7
	c0,17.9,12.9,30.7,29.3,30.7c8.3,0,14.4-3.3,18.5-8.6v7.1h12.7L644.3,520.1L644.3,520.1z M1074.2,520.1c0-10.3,6.7-18.7,17.8-18.7
	c10.5,0,17.6,8.1,17.6,18.7c0,10.6-7.1,18.7-17.6,18.7C1080.9,538.9,1074.2,530.4,1074.2,520.1 M1121.6,520.1v-52.8h-12.7V498
	c-4-5.3-10.2-8.6-18.5-8.6c-16.4,0-29.3,12.9-29.3,30.7c0,17.9,12.9,30.7,29.3,30.7c8.3,0,14.4-3.3,18.5-8.6v7.1h12.7V520.1z
	 M802.2,500.8c8.2,0,13.5,5.1,14.8,14.2h-30.4C788,506.5,793.1,500.8,802.2,500.8 M802.5,489.4c-17.1,0-29.1,12.5-29.1,30.7
	c0,18.6,12.5,30.7,30,30.7c8.8,0,16.9-2.2,24-8.2l-6.2-9.4c-4.9,3.9-11.2,6.1-17,6.1c-8.2,0-15.7-3.8-17.5-14.3H830
	c0.1-1.6,0.3-3.2,0.3-4.9C830.1,501.9,818.8,489.4,802.5,489.4 M956.1,520.1c0-10.3,6.7-18.7,17.7-18.7c10.5,0,17.6,8.1,17.6,18.7
	c0,10.6-7.1,18.7-17.6,18.7C962.8,538.9,956.1,530.4,956.1,520.1 M1003.4,520.1v-29.2h-12.7v7.1c-4-5.3-10.2-8.6-18.5-8.6
	c-16.4,0-29.3,12.9-29.3,30.7c0,17.9,12.9,30.7,29.3,30.7c8.3,0,14.4-3.3,18.5-8.6v7.1h12.7L1003.4,520.1L1003.4,520.1z
	 M884.2,520.1c0,17.7,12.4,30.7,31.2,30.7c8.8,0,14.7-2,21-7l-6.1-10.3c-4.8,3.4-9.8,5.3-15.3,5.3c-10.2-0.1-17.6-7.5-17.6-18.7
	s7.5-18.6,17.6-18.7c5.5,0,10.5,1.8,15.3,5.3l6.1-10.3c-6.4-5-12.2-7-21-7C896.6,489.4,884.2,502.4,884.2,520.1 M1048.2,489.4
	c-7.3,0-12.1,3.4-15.4,8.6v-7.1h-12.6v58.5h12.7v-32.8c0-9.7,4.2-15.1,12.5-15.1c2.7,0,5.4,0.5,8,1.5l3.9-12
	C1054.5,489.9,1050.8,489.4,1048.2,489.4 M707.2,495.5c-6.1-4-14.6-6.1-23.9-6.1c-14.8,0-24.4,7.1-24.4,18.7
	c0,9.5,7.1,15.4,20.2,17.3l6,0.9c7,1,10.3,2.8,10.3,6.1c0,4.5-4.6,7.1-13.3,7.1c-8.8,0-15.2-2.8-19.5-6.1l-6,9.9
	c7,5.1,15.8,7.6,25.3,7.6c16.9,0,26.7-8,26.7-19.1c0-10.3-7.7-15.7-20.4-17.5l-6-0.9c-5.5-0.7-9.9-1.8-9.9-5.7
	c0-4.3,4.2-6.9,11.1-6.9c7.5,0,14.7,2.8,18.2,5L707.2,495.5L707.2,495.5z M871.4,489.4c-7.3,0-12.1,3.4-15.4,8.6v-7.1h-12.6v58.5
	h12.7v-32.8c0-9.7,4.2-15.1,12.5-15.1c2.7,0,5.4,0.5,8,1.5l3.9-12C877.6,489.9,873.9,489.4,871.4,489.4 M762.8,490.9H742v-17.7
	h-12.9v17.7h-11.9v11.6h11.9v26.7c0,13.6,5.3,21.7,20.3,21.7c5.5,0,11.9-1.7,15.9-4.5l-3.7-10.9c-3.8,2.2-8,3.3-11.3,3.3
	c-6.4,0-8.4-3.9-8.4-9.8v-26.4h20.8L762.8,490.9z M572.6,549.4v-36.7c0-13.8-8.8-23.1-23-23.3c-7.5-0.1-15.2,2.2-20.6,10.4
	c-4-6.5-10.4-10.4-19.3-10.4c-6.2,0-12.4,1.8-17.1,8.7v-7.2h-12.7v58.5h12.8v-32.4c0-10.2,5.6-15.6,14.3-15.6
	c8.4,0,12.7,5.5,12.7,15.4v32.6h12.9v-32.4c0-10.2,5.9-15.6,14.3-15.6c8.7,0,12.8,5.5,12.8,15.4v32.6L572.6,549.4z"/>
</svg>
