<svg xmlns="http://www.w3.org/2000/svg" xmlns:xlink="http://www.w3.org/1999/xlink" version="1.1" width="256" height="256" viewBox="0 0 256 256" xml:space="preserve">

<defs>
</defs>
<g style="stroke: none; stroke-width: 0; stroke-dasharray: none; stroke-linecap: butt; stroke-linejoin: miter; stroke-miterlimit: 10; fill: none; fill-rule: nonzero; opacity: 1;" transform="translate(1.4065934065934016 1.4065934065934016) scale(2.81 2.81)" >
	<path d="M 25.87 31.035 c -2.369 6.39 -4.744 12.779 -7.09 19.175 c -0.197 -1.041 -0.359 -2.094 -0.586 -3.123 c -0.915 -4.535 -1.771 -9.076 -2.704 -13.599 c -0.185 -1.298 -1.334 -2.411 -2.674 -2.405 c -2.973 -0.132 -5.953 0.018 -8.926 -0.06 C 2.591 31.047 1.209 30.796 0 31.418 c 2.734 0.903 5.504 1.771 7.987 3.261 c 2.208 8.137 4.284 16.309 6.509 24.44 c 2.513 0 5.026 -0.036 7.538 0.042 c 3.997 -9.315 7.646 -18.774 11.559 -28.125 C 31.021 31.053 28.448 31.065 25.87 31.035 z" style="stroke: none; stroke-width: 1; stroke-dasharray: none; stroke-linecap: butt; stroke-linejoin: miter; stroke-miterlimit: 10; fill: rgb(0,0,0); fill-rule: nonzero; opacity: 1;" transform=" matrix(1 0 0 1 0 0) " stroke-linecap="round" />
	<path d="M 36.483 31.023 c -1.46 9.375 -3.093 18.72 -4.481 28.101 c 2.417 0.006 4.828 0.006 7.239 0 c 1.454 -9.375 3.021 -18.732 4.511 -28.101 C 41.33 31.041 38.906 31.041 36.483 31.023 z" style="stroke: none; stroke-width: 1; stroke-dasharray: none; stroke-linecap: butt; stroke-linejoin: miter; stroke-miterlimit: 10; fill: rgb(0,0,0); fill-rule: nonzero; opacity: 1;" transform=" matrix(1 0 0 1 0 0) " stroke-linecap="round" />
	<path d="M 62.587 45.191 c -2.106 -2.495 -5.63 -3.015 -7.867 -5.307 c -1.089 -1.221 0.203 -2.848 1.514 -3.159 c 2.776 -0.712 5.755 -0.168 8.31 1.059 c 0.359 -2.052 0.706 -4.11 0.927 -6.186 c -4.804 -1.579 -10.482 -1.663 -14.826 1.191 c -2.991 1.944 -4.852 5.971 -3.446 9.411 c 1.131 2.722 3.841 4.242 6.36 5.48 c 1.298 0.724 2.967 1.406 3.344 3.003 c 0.102 1.34 -1.077 2.279 -2.22 2.662 c -3.368 0.748 -6.874 -0.036 -9.896 -1.597 c -0.377 2.094 -0.688 4.2 -1.059 6.294 c 3.494 1.442 7.377 1.675 11.104 1.286 c 3.297 -0.443 6.683 -1.986 8.442 -4.936 C 64.938 51.598 65.028 47.578 62.587 45.191 z" style="stroke: none; stroke-width: 1; stroke-dasharray: none; stroke-linecap: butt; stroke-linejoin: miter; stroke-miterlimit: 10; fill: rgb(0,0,0); fill-rule: nonzero; opacity: 1;" transform=" matrix(1 0 0 1 0 0) " stroke-linecap="round" />
	<path d="M 84.119 31.059 c -2.226 0.042 -4.463 -0.09 -6.689 0.066 c -1.514 0.078 -2.471 1.484 -2.956 2.776 c -3.5 8.424 -7.042 16.83 -10.548 25.248 c 2.537 -0.006 5.073 -0.006 7.61 -0.006 c 0.532 -1.406 1.047 -2.824 1.544 -4.242 c 3.099 0.018 6.198 0.012 9.303 0.012 c 0.287 1.418 0.586 2.83 0.903 4.236 c 2.238 -0.006 4.475 -0.006 6.713 -0.012 C 88.038 49.78 86.111 40.416 84.119 31.059 z M 75.192 49.121 c 1.352 -3.476 2.459 -7.054 3.973 -10.464 c 0.449 3.53 1.328 6.988 2.052 10.47 C 79.207 49.127 77.203 49.127 75.192 49.121 z" style="stroke: none; stroke-width: 1; stroke-dasharray: none; stroke-linecap: butt; stroke-linejoin: miter; stroke-miterlimit: 10; fill: rgb(0,0,0); fill-rule: nonzero; opacity: 1;" transform=" matrix(1 0 0 1 0 0) " stroke-linecap="round" />
</g>
</svg>